<?xml version="1.0" encoding="utf-8"?>
<svg id="master-artboard" viewBox="0 0 1400 980" version="1.1" xmlns="http://www.w3.org/2000/svg" x="0px" y="0px" style="enable-background:new 0 0 1400 980;" width="1400px" height="980px"><g transform="matrix(48.81207433311198, 0, 0, 48.81207433311198, 209.9999202776835, 0.000005331304691935657)"><g>
	<g>
		<path style="fill:#030104;" d="M4.83,16.242c-0.083,0.175,0.232,0.316,0.363,0.319c0.077,0,3.443,0,4.856,0&#10;&#9;&#9;&#9;c1.414,0,4.78,0,4.858,0c0.13-0.003,0.444-0.145,0.363-0.319c-0.095-0.221-0.441-0.268-0.566-0.268c-0.091,0-2.827,0-4.24,0&#10;&#9;&#9;&#9;c0,0-0.335,0-0.829,0c-1.415,0-4.149,0-4.242,0C5.271,15.975,4.925,16.021,4.83,16.242z"/>
		<path style="fill:#030104;" d="M16.057,19.536c-0.114-0.176-0.501-0.37-0.501-0.37H4.522c0,0-0.387,0.172-0.518,0.357&#10;&#9;&#9;&#9;c-0.13,0.186-0.132,0.554-0.132,0.554h12.334C16.206,20.077,16.17,19.711,16.057,19.536z"/>
		<path d="M 14.91100025177002 16.694000244140625 L 5.308000087738037 16.694000244140625 L 4.610000133514404 19.027000427246094 L 15.467000007629395 19.027000427246094 Z" style="fill:#030104;"/>
		
		<path style="fill: rgb(128, 128, 128);" d="M14.229,9.352c0-0.172-0.18-0.312-0.402-0.312H5.7c-0.221,0-0.4,0.14-0.4,0.312&#10;&#9;&#9;&#9;c0,0.171,0.179,0.312,0.4,0.312h1.427c-0.298,2.715-0.501,4.426-1.653,5.92h9.128c-1.152-1.494-1.511-3.205-1.826-5.92h1.052&#10;&#9;&#9;&#9;C14.05,9.664,14.229,9.523,14.229,9.352z"/>
		
	<path d="M 9.32470703125 13.00158405303955 L 9.32470703125 13.00158405303955" style="fill: rgb(128, 128, 128); fill-opacity: 1; stroke: rgb(0, 0, 0); stroke-opacity: 1; stroke-width: 0; paint-order: fill;"/></g>
</g><g>
</g><g>
</g><g>
</g><g>
</g><g>
</g><g>
</g><g>
</g><g>
</g><g>
</g><g>
</g><g>
</g><g>
</g><g>
</g><g>
</g><g>
</g></g><g transform="matrix(0.6874456020490319, 0, 0, 0.6874456020490319, 616.4203730797998, 174.72369817324508)"><path d="M403.288,153.454L111.732,45.741v-21.27C111.732,10.961,100.779,0,87.261,0C73.743,0,62.79,10.961,62.79,24.471v422.156&#10;&#9;c0,13.51,10.952,24.471,24.471,24.471c13.518,0,24.471-10.961,24.471-24.471V275.555l291.557-107.699&#10;&#9;c3.012-1.113,5.019-3.981,5.019-7.2C408.307,157.436,406.3,154.57,403.288,153.454z" transform="matrix(0.9254547102889215, 0, 0, 0.9254547102889215, 4.680696081927849, 80.01896484295635)" style="fill: rgb(128, 128, 128);"/><g>
</g><g>
</g><g>
</g><g>
</g><g>
</g><g>
</g><g>
</g><g>
</g><g>
</g><g>
</g><g>
</g><g>
</g><g>
</g><g>
</g><g>
</g></g></svg>