<?xml version="1.0" encoding="utf-8"?>
<svg id="master-artboard" viewBox="0 0 1011.5152587890625 1020.893310546875" version="1.1" xmlns="http://www.w3.org/2000/svg" x="0px" y="0px" style="enable-background:new 0 0 1400 980;" width="1011.5152587890625px" height="1020.893310546875px"><rect id="ee-background" x="0" y="0" width="1011.5152587890625" height="1020.893310546875" style="fill: white; fill-opacity: 0; pointer-events: none;"/><g transform="matrix(48.81207275390625, 0, 0, 48.81207275390625, 9.623672485351562, -8.17863655090332)"><g>
	<g>
		<path style="fill:#030104;" d="M4.83,16.242c-0.083,0.175,0.232,0.316,0.363,0.319c0.077,0,3.443,0,4.856,0&#10;&#9;&#9;&#9;c1.414,0,4.78,0,4.858,0c0.13-0.003,0.444-0.145,0.363-0.319c-0.095-0.221-0.441-0.268-0.566-0.268c-0.091,0-2.827,0-4.24,0&#10;&#9;&#9;&#9;c0,0-0.335,0-0.829,0c-1.415,0-4.149,0-4.242,0C5.271,15.975,4.925,16.021,4.83,16.242z"/>
		<path style="fill:#030104;" d="M16.057,19.536c-0.114-0.176-0.501-0.37-0.501-0.37H4.522c0,0-0.387,0.172-0.518,0.357&#10;&#9;&#9;&#9;c-0.13,0.186-0.132,0.554-0.132,0.554h12.334C16.206,20.077,16.17,19.711,16.057,19.536z"/>
		<path d="M 14.91100025177002 16.694000244140625 L 5.308000087738037 16.694000244140625 L 4.610000133514404 19.027000427246094 L 15.467000007629395 19.027000427246094 Z" style="fill:#030104;"/>
		<path style="fill:#030104;" d="M7.381,8.737h5.14l-0.15-1.808c0,0,3.235-3.551,2.93-3.736c-0.328-0.197-1.606,0.146-2.115,0.146&#10;&#9;&#9;&#9;c-0.284,0-0.728,0-1.013,0c0,0,0-0.185,0-0.255c0-0.163-0.229-0.295-0.512-0.295c-0.23,0-0.96,0-1.697,0c-0.722,0-1.451,0-1.725,0&#10;&#9;&#9;&#9;c-0.283,0-0.511,0.132-0.511,0.295c0,0.07,0,0.255,0,0.255c-0.287,0-0.728,0-1.014,0c-0.494,0-1.76-0.35-2.083-0.163&#10;&#9;&#9;&#9;s2.924,3.797,2.924,3.797L7.381,8.737z"/>
		<path style="fill:#030104;" d="M14.229,9.352c0-0.172-0.18-0.312-0.402-0.312H5.7c-0.221,0-0.4,0.14-0.4,0.312&#10;&#9;&#9;&#9;c0,0.171,0.179,0.312,0.4,0.312h1.427c-0.298,2.715-0.501,4.426-1.653,5.92h9.128c-1.152-1.494-1.511-3.205-1.826-5.92h1.052&#10;&#9;&#9;&#9;C14.05,9.664,14.229,9.523,14.229,9.352z"/>
		
	</g>
</g><g>
</g><g>
</g><g>
</g><g>
</g><g>
</g><g>
</g><g>
</g><g>
</g><g>
</g><g>
</g><g>
</g><g>
</g><g>
</g><g>
</g><g>
</g></g></svg>