<?xml version="1.0" encoding="utf-8"?>
<svg id="master-artboard" viewBox="0 0 977.1632080078125 989.3150024414062" version="1.1" xmlns="http://www.w3.org/2000/svg" x="0px" y="0px" style="enable-background:new 0 0 1400 980;" width="977.1632080078125px" height="989.3150024414062px"><rect id="ee-background" x="0" y="0" width="977.1632080078125" height="989.3150024414062" style="fill: rgb(255, 255, 255); fill-opacity: 0; pointer-events: none;"/><g transform="matrix(0.9599468111991882, 0, 0, 0.9599468111991882, 6.343574523925781, 6.2036590576171875)"><metadata>















</metadata><defs><radialGradient id="gradient-0" gradientUnits="objectBoundingBox" cx="0.5" cy="0.5" r="0.5">
                <stop offset="0" style="stop-color: #00ff09"/>
                <stop offset="1" style="stop-color: #009905"/>
              </radialGradient><linearGradient id="gradient-1" gradientUnits="objectBoundingBox" x1="0.5" y1="0" x2="0.5" y2="1">
                <stop offset="0" style="stop-color: #000000"/>
                <stop offset="1" style="stop-color: #000000"/>
              </linearGradient></defs><g id="Untitled">
<g opacity="1">
<path fill="#000000" opacity="1" d="M245.386+784.627C241.335+793.169+256.71+800.052+263.105+800.198C266.863+800.198+431.165+800.198+500.136+800.198C569.156+800.198+733.458+800.198+737.265+800.198C743.611+800.052+758.938+793.12+754.984+784.627C750.347+773.84+733.458+771.545+727.356+771.545C722.914+771.545+589.365+771.545+520.393+771.545C520.393+771.545+504.041+771.545+479.928+771.545C410.859+771.545+277.407+771.545+272.867+771.545C266.912+771.594+250.023+773.84+245.386+784.627Z" style="stroke: rgb(3, 3, 2); stroke-width: 10; fill: rgb(242, 233, 245);"/>
<path d="M793.399+945.414C787.835+936.823+768.944+927.354+768.944+927.354L230.352+927.354C230.352+927.354+211.462+935.749+205.067+944.779C198.722+953.858+198.624+971.821+198.624+971.821L800.672+971.821C800.672+971.821+798.915+953.956+793.399+945.414Z" fill="#000000" opacity="1" style="stroke: rgb(13, 12, 12); fill: rgb(247, 248, 245); stroke-width: 10;"/>
<path fill="#000000" d="M737.461+806.69L268.718+806.69L234.647+920.569L764.6+920.569L737.461+806.69Z" opacity="1" style="fill-opacity: 0.96; fill: rgb(254, 255, 252); stroke: rgb(14, 14, 9); stroke-width: 10;"/>
<path d="M369.906+418.292L620.8+418.292L613.478+330.04C613.478+330.04+771.385+156.709+756.497+147.678C740.487+138.062+678.105+154.805+653.26+154.805C639.397+154.805+617.724+154.805+603.813+154.805C603.813+154.805+603.813+145.775+603.813+142.358C603.813+134.401+592.635+127.958+578.821+127.958C567.594+127.958+531.962+127.958+495.987+127.958C460.745+127.958+425.161+127.958+411.786+127.958C397.973+127.958+386.843+134.401+386.843+142.358C386.843+145.775+386.843+154.805+386.843+154.805C372.834+154.805+351.308+154.805+337.348+154.805C313.235+154.805+251.439+137.721+235.672+146.849C219.906+155.976+378.399+332.188+378.399+332.188L369.906+418.292Z" opacity="1" fill="#000000" style="fill-opacity: 1; stroke: rgb(0, 0, 0); stroke-width: 10; fill: rgb(250, 255, 250);"/>
<path fill="#000000" opacity="1" d="M704.171+448.312C704.171+439.916+695.384+433.083+684.548+433.083L287.852+433.083C277.065+433.083+268.328+439.916+268.328+448.312C268.328+456.659+277.065+463.541+287.852+463.541L357.507+463.541C342.961+596.066+333.052+679.583+276.821+752.509L722.378+752.509C666.146+679.583+648.623+596.066+633.247+463.541L684.597+463.541C695.433+463.541+704.171+456.659+704.171+448.312Z" style="fill: rgb(244, 244, 244); stroke: rgb(3, 3, 3); stroke-width: 10;"/>
<path d="M 560.7798461914062 177.3035430908203 L 560.7798461914062 177.3035430908203 L 560.7798461914062 177.3035430908203" style="fill: rgb(0, 0, 0); fill-opacity: 1; stroke: rgb(0, 0, 0); stroke-opacity: 1; stroke-width: 0; paint-order: fill;"/><path d="M 444.09783935546875 608.3787841796875 L 444.09783935546875 608.3787841796875" style="fill: rgb(250, 255, 250); fill-opacity: 1; stroke: rgb(0, 0, 0); stroke-opacity: 1; stroke-width: 15; paint-order: stroke;"/></g>

</g></g><path d="M 501.1035461425781 202.279541015625 L 501.1035461425781 202.279541015625" style="fill: rgb(0, 0, 0); fill-opacity: 1; stroke: rgb(219, 149, 147); stroke-opacity: 1; stroke-width: 13; paint-order: stroke;" transform="matrix(1, 0, 0, 1, 0, 5.2395734786987305)"/></svg>